<svg xmlns="http://www.w3.org/2000/svg" width="239" height="82" viewBox="0 0 239 82"><defs><clipPath id="c7xla"><path fill="#fff" d="M192 0v18c0 5.523-4.477 10-10 10h-32V10c0-5.523 4.477-10 10-10z"/></clipPath><clipPath id="c7xlb"><path fill="#fff" d="M135 28c-5.523 0-10-4.477-10-10V8h19c5.523 0 10 4.477 10 10v10z"/></clipPath></defs><g><g><g><g><text dominant-baseline="text-before-edge" style="line-height:26px;font-kerning:normal" fill="#0312a0" font-family="'Lato','Lato-Medium'" font-size="18" transform="translate(128 61)"><tspan>ubezpieczenia</tspan></text></g></g><g><g><text dominant-baseline="text-before-edge" style="line-height:26px;font-kerning:normal" fill="#0312a0" font-family="'Lato','Lato-Light'" font-size="43" font-style="none" font-weight="lighter" transform="translate(0 18)"><tspan font-family="Lato-Heavy">twoje</tspan><tspan>finanse</tspan></text></g></g></g><g><path fill="none" stroke="#fe7a22" stroke-miterlimit="20" stroke-width="8" d="M192 0v18c0 5.523-4.477 10-10 10h-32v0-18c0-5.523 4.477-10 10-10z" clip-path="url(&quot;#c7xla&quot;)"/></g><g><path fill="none" stroke="#fe7a22" stroke-miterlimit="20" stroke-width="8" d="M135 28c-5.523 0-10-4.477-10-10V8v0h19c5.523 0 10 4.477 10 10v10z" clip-path="url(&quot;#c7xlb&quot;)"/></g></g></svg>